<?xml version="1.0" encoding="UTF-8" standalone="no"?>
<!-- Generator: Adobe Illustrator 24.1.1, SVG Export Plug-In . SVG Version: 6.00 Build 0)  -->

<svg
   version="1.1"
   id="Layer_1"
   x="0px"
   y="0px"
   viewBox="0 0 512 512"
   style="enable-background:new 0 0 512 512;"
   xml:space="preserve"
   sodipodi:docname="copy_17.svg"
   inkscape:version="1.3.2 (091e20ef0f, 2023-11-25)"
   xmlns:inkscape="http://www.inkscape.org/namespaces/inkscape"
   xmlns:sodipodi="http://sodipodi.sourceforge.net/DTD/sodipodi-0.dtd"
   xmlns="http://www.w3.org/2000/svg"
   xmlns:svg="http://www.w3.org/2000/svg"><defs
   id="defs1" /><sodipodi:namedview
   id="namedview1"
   pagecolor="#ffffff"
   bordercolor="#000000"
   borderopacity="0.25"
   inkscape:showpageshadow="2"
   inkscape:pageopacity="0.0"
   inkscape:pagecheckerboard="0"
   inkscape:deskcolor="#d1d1d1"
   inkscape:zoom="1.59375"
   inkscape:cx="255.68627"
   inkscape:cy="256"
   inkscape:window-width="1866"
   inkscape:window-height="1016"
   inkscape:window-x="54"
   inkscape:window-y="27"
   inkscape:window-maximized="1"
   inkscape:current-layer="Layer_1" />
<style
   type="text/css"
   id="style1">
	.st0{fill:#555555;}
</style>
<g
   id="g1"
   style="fill:#000000">
	<path
   class="st0"
   d="M170.1,76.4c-3.6,0-6.5,2.9-6.5,6.4s2.9,6.4,6.5,6.4h95.1c3.6,0,6.5-2.9,6.5-6.4s-2.9-6.4-6.5-6.4H170.1z    M265.1,42c18.8,0,34.6,12.5,39.5,29.7l55.7,0c15.9,0.1,28.7,5.3,36.6,16.3c6.8,9.5,9.5,21.8,8.8,35.5l0,333.1   c1.1,14.1-1.6,26.6-8.4,37c-8,12.1-21,18.2-37.1,18.3l-279.8,0c-19.4-0.8-33.9-5.3-42.9-15.6c-8.4-9.5-12.1-22.5-11.9-38.4l0-334.1   c-0.3-15.3,3.9-28.3,13.3-37.9c9.6-9.9,23.9-14.2,42.1-14.3l49.5,0c4.9-17.1,20.7-29.7,39.5-29.7H265.1z M265.1,123.6h-95.1   c-14,0-26.3-6.9-33.7-17.5H81.2c-9.8,0.1-15.4,1.8-17.5,3.9c-2.3,2.4-3.7,6.5-3.5,13.6v334.6c-0.1,8.3,1.3,13.4,3.3,15.6   c1.4,1.6,7.3,3.4,17.5,3.9h279c5.1,0,7.2-1,8.4-2.8c2.3-3.5,3.4-8.6,2.8-16.9l0-335.2c0.4-7.5-0.7-12.3-2.5-14.8   c-0.7-0.9-3-1.8-8.6-1.9h-61.4C291.4,116.7,279.1,123.6,265.1,123.6z M440.3,0c25.5,0,46.1,20.5,46.1,45.8v360.5   c0,25.3-20.6,45.8-46.1,45.8h-50.1v-34.4h50.1c6.4,0,11.5-5.1,11.5-11.4V45.8c0-6.3-5.2-11.5-11.5-11.5H246.9   c-6.4,0-11.5,5.1-11.5,11.5v4h-34.6v-4c0-25.3,20.6-45.8,46.1-45.8H440.3z M209.8,300.8c9.6,0,17.3,7.7,17.3,17.2   c0,9.5-7.7,17.2-17.3,17.2H106.1c-9.5,0-17.3-7.7-17.3-17.2c0-9.5,7.7-17.2,17.3-17.2H209.8z M313.5,232.1   c9.5,0,17.3,7.7,17.3,17.2s-7.7,17.2-17.3,17.2H106.1c-9.5,0-17.3-7.7-17.3-17.2s7.7-17.2,17.3-17.2H313.5z M313.5,163.4   c9.5,0,17.3,7.7,17.3,17.2c0,9.5-7.7,17.2-17.3,17.2H106.1c-9.5,0-17.3-7.7-17.3-17.2c0-9.5,7.7-17.2,17.3-17.2H313.5z"
   id="path1"
   style="fill:#000000" />
</g>
</svg>
