<svg viewBox="0 0 1024 1024" fill="currentColor" overflow="hidden" xmlns="http://www.w3.org/2000/svg"><path d="M426.667 85.333c23.564 0 42.666 19.103 42.666 42.667v170.667c0 23.564-19.103 42.667-42.667 42.667h-85.333v85.333h213.333V384c0-23.564 19.103-42.667 42.667-42.667h256C876.897 341.333 896 360.436 896 384v170.667c0 23.564-19.103 42.667-42.667 42.667h-256c-23.564 0-42.667-19.103-42.667-42.667V512H341.333c-31.073-15.758-32.382-14.487-85.333-30.52V341.334h-85.333c-23.564 0-42.666-19.102-42.667-42.666V128c0-23.564 19.103-42.667 42.667-42.667zm384 341.334H640V512h170.667zM384 170.667H213.333V256H384z" style="opacity:.38818565"/><path d="M341.082 511.748v256h213.333v-42.667c0-23.564 19.103-42.667 42.667-42.667h256c23.564 0 42.667 19.103 42.667 42.667v170.667c0 23.564-19.103 42.667-42.667 42.667h-256c-23.564 0-42.667-19.102-42.667-42.667v-42.667h-256c-23.564 0-42.667-19.102-42.667-42.667l.408-329.336c43.941 13.17 39.428 7.222 84.926 30.67zm469.333 256H639.748v85.333h170.667z" fill="#00f" style="fill:#007bff;fill-opacity:.686275"/></svg>