<?xml version="1.0" encoding="UTF-8" standalone="no"?>
<svg
   viewBox="0 0 1024 1024"
   fill="currentColor"
   overflow="hidden"
   version="1.1"
   id="svg16"
   sodipodi:docname="node-tree.svg"
   inkscape:version="1.2.1 (9c6d41e410, 2022-07-14)"
   xmlns:inkscape="http://www.inkscape.org/namespaces/inkscape"
   xmlns:sodipodi="http://sodipodi.sourceforge.net/DTD/sodipodi-0.dtd"
   xmlns="http://www.w3.org/2000/svg"
   xmlns:svg="http://www.w3.org/2000/svg">
  <defs
     id="defs20" />
  <sodipodi:namedview
     id="namedview18"
     pagecolor="#ffffff"
     bordercolor="#666666"
     borderopacity="1.0"
     inkscape:showpageshadow="2"
     inkscape:pageopacity="0.0"
     inkscape:pagecheckerboard="0"
     inkscape:deskcolor="#d1d1d1"
     showgrid="false"
     inkscape:zoom="0.58212014"
     inkscape:cx="812.54705"
     inkscape:cy="452.6557"
     inkscape:window-width="1920"
     inkscape:window-height="1001"
     inkscape:window-x="3191"
     inkscape:window-y="702"
     inkscape:window-maximized="1"
     inkscape:current-layer="svg16" />
  <path
     d="m 426.667,85.333 c 23.56394,5.52e-4 42.666,19.10306 42.666,42.667 v 170.667 c 0,23.56433 -19.10267,42.667 -42.667,42.667 h -85.333 v 85.333 H 554.666 V 384 c 0,-23.56433 19.10267,-42.667 42.667,-42.667 h 256 C 876.89733,341.333 896,360.43567 896,384 v 170.667 c 0,23.56433 -19.10267,42.667 -42.667,42.667 h -256 c -23.56433,0 -42.667,-19.10267 -42.667,-42.667 V 512 H 341.333 C 310.26008,496.24191 308.95103,497.51324 256,481.48076 V 341.333 h -85.333 c -23.56394,0 -42.66645,-19.10206 -42.667,-42.666 V 128 c 0,-23.56433 19.10267,-42.667 42.667,-42.667 z m 384,341.334 H 640 V 512 H 810.667 Z M 384,170.667 H 213.333 V 256 H 384 Z"
     id="path12"
     sodipodi:nodetypes="cssscccssssssssccccscssccccccccccc"
     style="opacity:0.38818565" />
  <path
     d="m 341.082,511.748 v 256 h 213.333 v -42.667 c 0,-23.564 19.103,-42.667 42.667,-42.667 h 256 c 23.564,0 42.667,19.103 42.667,42.667 v 170.667 c 0,23.564 -19.103,42.667 -42.667,42.667 h -256 c -23.564,0 -42.667,-19.102 -42.667,-42.667 v -42.667 h -256 c -23.564,0 -42.667,-19.102 -42.667,-42.667 l 0.40832,-329.33616 c 43.94116,13.16948 39.42778,7.22251 84.92568,30.67016 z m 469.333,256 H 639.748 v 85.333 h 170.667 z"
     fill="#00f"
     id="path14"
     style="fill:#007bff;fill-opacity:0.686275"
     sodipodi:nodetypes="cccsssssssscscccccccc" />
</svg>
